<svg data-v-423bf9ae="" xmlns="http://www.w3.org/2000/svg" viewBox="0 0 1631.3017343610818 193" class="fontAboveSlogan"><!----><!----><!----><g data-v-423bf9ae="" id="43486892-83c6-43a8-a35b-424187ae8b2d" fill="#FFFFFF" transform="matrix(11.527377690580042,0,0,11.527377690580042,436.98276020912,-37.740347784278285)"><path d="M0.83 10.82L0.83 10.82L0.83 10.82Q0.83 10.53 1.02 10.53L1.02 10.53L1.02 10.53Q1.20 10.53 1.25 10.67L1.25 10.67L1.25 10.67Q1.39 11.00 1.51 11.25L1.51 11.25L1.51 11.25Q1.62 11.49 1.89 11.85L1.89 11.85L1.89 11.85Q2.16 12.21 2.46 12.44L2.46 12.44L2.46 12.44Q2.77 12.67 3.25 12.84L3.25 12.84L3.25 12.84Q3.74 13.01 4.31 13.01L4.31 13.01L4.31 13.01Q5.36 13.01 6.00 12.45L6.00 12.45L6.00 12.45Q6.64 11.90 6.64 11.00L6.64 11.00L6.64 11.00Q6.64 10.35 6.20 9.90L6.20 9.90L6.20 9.90Q5.77 9.46 5.21 9.27L5.21 9.27L5.21 9.27Q4.65 9.09 3.79 8.77L3.79 8.77L3.79 8.77Q2.93 8.46 2.38 8.13L2.38 8.13L2.38 8.13Q1.11 7.38 1.11 6.08L1.11 6.08L1.11 6.08Q1.11 4.83 2.01 4.08L2.01 4.08L2.01 4.08Q2.91 3.33 4.35 3.33L4.35 3.33L4.35 3.33Q4.89 3.33 5.62 3.56L5.62 3.56L5.62 3.56Q6.36 3.79 6.37 3.79L6.37 3.79L6.37 3.79Q6.41 3.79 6.52 3.74L6.52 3.74L6.52 3.74Q6.64 3.68 6.69 3.68L6.69 3.68L6.69 3.68Q6.87 3.68 6.90 3.79L6.90 3.79L6.90 3.79Q7.20 5.49 7.20 5.70L7.20 5.70L7.20 5.70Q7.20 6.09 7 6.09L7 6.09L7 6.09Q6.87 6.09 6.80 5.89L6.80 5.89L6.80 5.89Q6.64 5.49 6.48 5.24L6.48 5.24L6.48 5.24Q6.31 4.98 6.24 4.91L6.24 4.91L6.24 4.91Q6.17 4.84 5.88 4.58L5.88 4.58L5.88 4.58Q5.12 3.91 4.05 3.91L4.05 3.91L4.05 3.91Q3.18 3.91 2.59 4.33L2.59 4.33L2.59 4.33Q2.00 4.75 2.00 5.46L2.00 5.46L2.00 5.46Q2.00 6.09 2.35 6.50L2.35 6.50L2.35 6.50Q2.69 6.90 3.26 7.13L3.26 7.13L3.26 7.13Q3.84 7.35 4.47 7.55L4.47 7.55L4.47 7.55Q5.10 7.74 5.80 8.09L5.80 8.09L5.80 8.09Q6.51 8.44 6.97 8.93L6.97 8.93L6.97 8.93Q7.53 9.53 7.53 10.43L7.53 10.43L7.53 10.43Q7.53 11.90 6.59 12.76L6.59 12.76L6.59 12.76Q5.66 13.62 4.27 13.62L4.27 13.62L4.27 13.62Q3.30 13.62 2.72 13.52L2.72 13.52L2.72 13.52Q2.13 13.41 1.51 13.09L1.51 13.09L1.51 13.09Q1.33 12.98 1.08 12.00L1.08 12.00L1.08 12.00Q0.83 11.02 0.83 10.82ZM8.62 3.71L8.62 3.71L8.62 3.71Q8.62 3.50 9.02 3.50L9.02 3.50L9.02 3.50Q9.16 3.50 9.66 3.53L9.66 3.53L9.66 3.53Q10.16 3.56 10.60 3.56L10.60 3.56L10.60 3.56Q10.86 3.56 11.11 3.54L11.11 3.54L11.11 3.54Q11.35 3.53 11.83 3.53L11.83 3.53L11.83 3.53Q12.21 3.53 12.21 3.72L12.21 3.72L12.21 3.72Q12.21 3.84 11.56 4.10L11.56 4.10L11.56 4.10Q11.12 4.28 11.12 5.71L11.12 5.71L11.12 5.71Q11.12 7.60 11.09 9.05L11.09 9.05L11.09 9.05Q11.07 10.50 11.07 10.89L11.07 10.89L11.07 10.89Q11.07 12.07 11.42 12.59L11.42 12.59L11.42 12.59Q11.73 13.02 12.10 13.02L12.10 13.02L12.10 13.02Q12.12 13.02 12.24 13.03L12.24 13.03L12.24 13.03Q12.35 13.03 12.38 13.03L12.38 13.03L12.38 13.03Q12.47 13.03 12.57 13.08L12.57 13.08L12.57 13.08Q12.67 13.13 12.67 13.19L12.67 13.19L12.67 13.19Q12.67 13.34 12.59 13.39L12.59 13.39L12.59 13.39Q12.52 13.44 12.32 13.44L12.32 13.44L12.32 13.44Q11.90 13.44 11.54 13.41L11.54 13.41L11.54 13.41Q11.19 13.38 10.99 13.38L10.99 13.38L10.99 13.38Q10.60 13.38 10.14 13.42L10.14 13.42L10.14 13.42Q9.67 13.45 9.45 13.45L9.45 13.45L9.45 13.45Q8.82 13.45 8.82 13.24L8.82 13.24L8.82 13.24Q8.82 13.12 8.95 13.07L8.95 13.07L8.95 13.07Q9.09 13.02 9.25 13.00L9.25 13.00L9.25 13.00Q9.42 12.98 9.60 12.82L9.60 12.82L9.60 12.82Q9.79 12.66 9.86 12.35L9.86 12.35L9.86 12.35Q9.88 12.25 9.95 10.76L9.95 10.76L9.95 10.76Q10.01 9.27 10.01 8.61L10.01 8.61L10.01 7.81L10.01 7.81Q10.01 7.63 10.02 7.12L10.02 7.12L10.02 7.12Q10.02 6.61 10.02 6.30L10.02 6.30L10.02 5.66L10.02 5.66Q10.02 5.04 9.97 4.63L9.97 4.63L9.97 4.63Q9.93 4.30 9.60 4.12L9.60 4.12L9.60 4.12Q9.27 3.93 8.92 3.92L8.92 3.92L8.92 3.92Q8.62 3.91 8.62 3.71ZM13.22 3.77L13.22 3.77L13.22 3.77Q13.22 3.68 13.31 3.60L13.31 3.60L13.31 3.60Q13.41 3.53 13.57 3.53L13.57 3.53L13.57 3.53Q13.65 3.53 13.85 3.54L13.85 3.54L13.85 3.54Q14.04 3.54 14.10 3.54L14.10 3.54L14.10 3.54Q14.31 3.54 14.49 3.53L14.49 3.53L14.49 3.53Q14.67 3.51 14.78 3.51L14.78 3.51L14.78 3.51Q14.91 3.51 15.08 3.59L15.08 3.59L15.08 3.59Q15.25 3.67 15.27 3.75L15.27 3.75L15.27 3.75Q15.30 3.79 15.43 3.94L15.43 3.94L15.43 3.94Q15.55 4.09 15.76 4.33L15.76 4.33L15.76 4.33Q15.97 4.56 16.14 4.79L16.14 4.79L16.14 4.79Q18.05 7.27 21.24 10.77L21.24 10.77L21.24 10.77Q21.32 10.86 21.44 10.99L21.44 10.99L21.44 10.99Q21.56 11.12 21.61 11.18L21.61 11.18L21.61 11.18Q21.66 11.24 21.71 11.30L21.71 11.30L21.71 11.30Q21.77 11.35 21.80 11.38L21.80 11.38L21.80 11.38Q21.84 11.40 21.87 11.40L21.87 11.40L21.87 11.40Q22.01 11.40 22.01 10.53L22.01 10.53L22.01 8.89L22.01 8.89Q22.01 7.95 22.00 7.31L22.00 7.31L22.00 7.31Q21.99 6.66 21.99 6.38L21.99 6.38L21.99 6.38Q21.98 6.09 21.98 6.02L21.98 6.02L21.98 5.92L21.98 5.92Q21.98 5.45 21.92 5.11L21.92 5.11L21.92 5.11Q21.85 4.77 21.77 4.59L21.77 4.59L21.77 4.59Q21.69 4.41 21.52 4.28L21.52 4.28L21.52 4.28Q21.36 4.16 21.25 4.12L21.25 4.12L21.25 4.12Q21.14 4.09 20.93 4.05L20.93 4.05L20.93 4.05Q20.72 4.00 20.64 3.98L20.64 3.98L20.64 3.98Q20.36 3.89 20.36 3.74L20.36 3.74L20.36 3.74Q20.36 3.53 20.62 3.53L20.62 3.53L20.62 3.53Q20.71 3.53 21.29 3.54L21.29 3.54L21.29 3.54Q21.88 3.54 21.95 3.54L21.95 3.54L21.95 3.54Q22.29 3.54 22.70 3.53L22.70 3.53L22.70 3.53Q23.11 3.51 23.21 3.51L23.21 3.51L23.21 3.51Q23.45 3.51 23.54 3.56L23.54 3.56L23.54 3.56Q23.63 3.61 23.63 3.75L23.63 3.75L23.63 3.75Q23.63 3.81 23.55 3.86L23.55 3.86L23.55 3.86Q23.48 3.91 23.39 3.94L23.39 3.94L23.39 3.94Q23.31 3.98 23.23 4.00L23.23 4.00L23.14 4.03L23.14 4.03Q22.68 4.28 22.68 5.61L22.68 5.61L22.68 6.15L22.68 6.15Q22.68 7.21 22.60 9.83L22.60 9.83L22.60 9.83Q22.53 12.46 22.53 13.08L22.53 13.08L22.53 13.36L22.53 13.36Q22.53 13.68 22.33 13.68L22.33 13.68L22.33 13.68Q22.20 13.68 22.11 13.58L22.11 13.58L22.11 13.58Q17.46 8.19 16.55 7.17L16.55 7.17L16.55 7.17Q15.65 6.16 15.55 6.16L15.55 6.16L15.55 6.16Q15.41 6.16 15.41 7.11L15.41 7.11L15.41 7.11Q15.41 8.44 15.36 9.97L15.36 9.97L15.36 9.97Q15.30 11.51 15.30 11.65L15.30 11.65L15.30 11.65Q15.30 12.28 15.52 12.61L15.52 12.61L15.52 12.61Q15.74 12.94 15.99 12.98L15.99 12.98L15.99 12.98Q16.24 13.02 16.46 13.07L16.46 13.07L16.46 13.07Q16.67 13.12 16.67 13.26L16.67 13.26L16.67 13.26Q16.67 13.41 16.63 13.45L16.63 13.45L16.63 13.45Q16.58 13.50 16.45 13.50L16.45 13.50L16.45 13.50Q16.35 13.50 16.01 13.48L16.01 13.48L16.01 13.48Q15.67 13.47 14.95 13.47L14.95 13.47L14.95 13.47Q14.83 13.47 14.43 13.48L14.43 13.48L14.43 13.48Q14.04 13.50 13.76 13.50L13.76 13.50L13.76 13.50Q13.45 13.50 13.45 13.27L13.45 13.27L13.45 13.27Q13.45 13.15 13.64 13.11L13.64 13.11L13.64 13.11Q13.82 13.08 14.08 12.89L14.08 12.89L14.08 12.89Q14.35 12.71 14.49 12.21L14.49 12.21L14.49 12.21Q14.57 11.89 14.70 9.60L14.70 9.60L14.70 9.60Q14.83 7.32 14.83 6.45L14.83 6.45L14.83 6.45Q14.83 5.25 14.49 4.65L14.49 4.65L14.49 4.65Q14.15 4.06 13.40 3.98L13.40 3.98L13.40 3.98Q13.22 3.96 13.22 3.77ZM24.89 4.35L24.89 4.35L24.89 4.35Q24.89 4.27 25.27 3.89L25.27 3.89L25.27 3.89Q25.30 3.86 25.42 3.72L25.42 3.72L25.42 3.72Q25.54 3.57 25.63 3.51L25.63 3.51L25.63 3.51Q25.72 3.46 25.83 3.46L25.83 3.46L25.83 3.46Q25.87 3.46 25.97 3.51L25.97 3.51L25.97 3.51Q26.07 3.56 26.21 3.68L26.21 3.68L26.21 3.68Q26.35 3.81 26.47 3.98L26.47 3.98L26.47 3.98Q26.60 4.14 26.68 4.42L26.68 4.42L26.68 4.42Q26.77 4.70 26.77 5.03L26.77 5.03L26.77 5.03Q26.77 5.61 26.57 6.12L26.57 6.12L26.57 6.12Q26.38 6.62 26.11 6.89L26.11 6.89L26.11 6.89Q25.84 7.17 25.61 7.31L25.61 7.31L25.61 7.31Q25.38 7.46 25.26 7.46L25.26 7.46L25.26 7.46Q25.19 7.46 25.13 7.40L25.13 7.40L25.13 7.40Q25.07 7.34 25.07 7.29L25.07 7.29L25.07 7.29Q25.07 7.21 25.19 7.10L25.19 7.10L25.19 7.10Q25.31 7.00 25.47 6.88L25.47 6.88L25.47 6.88Q25.62 6.76 25.74 6.50L25.74 6.50L25.74 6.50Q25.86 6.23 25.86 5.87L25.86 5.87L25.86 5.87Q25.86 5.49 25.70 5.23L25.70 5.23L25.70 5.23Q25.55 4.97 25.38 4.87L25.38 4.87L25.38 4.87Q25.20 4.77 25.05 4.65L25.05 4.65L25.05 4.65Q24.89 4.52 24.89 4.35ZM28.08 3.68L28.08 3.68L28.08 3.68Q28.08 3.61 28.10 3.58L28.10 3.58L28.10 3.58Q28.11 3.56 28.18 3.53L28.18 3.53L28.18 3.53Q28.25 3.50 28.41 3.50L28.41 3.50L28.41 3.50Q28.56 3.50 29.05 3.53L29.05 3.53L29.05 3.53Q29.54 3.56 29.99 3.56L29.99 3.56L29.99 3.56Q30.27 3.56 30.50 3.54L30.50 3.54L30.50 3.54Q30.73 3.53 31.30 3.53L31.30 3.53L31.30 3.53Q31.60 3.53 31.60 3.72L31.60 3.72L31.60 3.72Q31.60 3.85 31.50 3.88L31.50 3.88L31.50 3.88Q31.40 3.91 31.26 3.92L31.26 3.92L31.26 3.92Q31.11 3.93 30.96 4.02L30.96 4.02L30.96 4.02Q30.81 4.10 30.72 4.43L30.72 4.43L30.72 4.43Q30.62 4.76 30.62 5.32L30.62 5.32L30.62 5.71L30.62 5.71Q30.62 6.37 30.61 7.37L30.61 7.37L30.61 7.37Q30.60 8.37 30.60 8.74L30.60 8.74L30.60 8.74Q30.60 9.17 30.61 9.39L30.61 9.39L30.61 9.39Q30.62 9.62 30.65 10.04L30.65 10.04L30.65 10.04Q30.67 10.47 30.72 10.72L30.72 10.72L30.72 10.72Q30.77 10.96 30.88 11.32L30.88 11.32L30.88 11.32Q31.00 11.68 31.16 11.89L31.16 11.89L31.16 11.89Q31.32 12.10 31.56 12.35L31.56 12.35L31.56 12.35Q31.81 12.60 32.13 12.73L32.13 12.73L32.13 12.73Q32.45 12.87 32.89 12.96L32.89 12.96L32.89 12.96Q33.32 13.05 33.85 13.05L33.85 13.05L33.85 13.05Q34.30 13.05 34.55 13.03L34.55 13.03L34.55 13.03Q34.80 13.02 35.25 12.94L35.25 12.94L35.25 12.94Q35.69 12.87 35.95 12.72L35.95 12.72L35.95 12.72Q36.20 12.57 36.53 12.27L36.53 12.27L36.53 12.27Q36.86 11.97 37.04 11.54L37.04 11.54L37.04 11.54Q37.23 11.10 37.35 10.43L37.35 10.43L37.35 10.43Q37.48 9.76 37.48 8.90L37.48 8.90L37.48 8.90Q37.48 7.49 37.47 6.75L37.47 6.75L37.47 6.75Q37.46 6.01 37.46 5.94L37.46 5.94L37.46 5.94Q37.46 5.45 37.44 5.17L37.44 5.17L37.44 5.17Q37.42 4.89 37.30 4.55L37.30 4.55L37.30 4.55Q37.18 4.21 36.96 4.06L36.96 4.06L36.96 4.06Q36.82 3.96 36.60 3.93L36.60 3.93L36.60 3.93Q36.37 3.89 36.23 3.87L36.23 3.87L36.23 3.87Q36.09 3.85 36.09 3.75L36.09 3.75L36.09 3.75Q36.09 3.53 36.37 3.53L36.37 3.53L36.37 3.53Q36.46 3.53 36.92 3.54L36.92 3.54L36.92 3.54Q37.38 3.56 37.45 3.56L37.45 3.56L37.45 3.56Q37.79 3.56 38.16 3.54L38.16 3.54L38.16 3.54Q38.54 3.51 38.64 3.51L38.64 3.51L38.64 3.51Q38.93 3.51 38.93 3.70L38.93 3.70L38.93 3.70Q38.93 3.81 38.63 3.98L38.63 3.98L38.63 3.98Q38.33 4.16 38.26 4.30L38.26 4.30L38.26 4.30Q38.11 4.59 38.11 5.22L38.11 5.22L38.11 5.22Q38.11 5.32 38.12 5.62L38.12 5.62L38.12 5.62Q38.12 5.92 38.12 6.16L38.12 6.16L38.12 6.16Q38.12 8.85 37.90 10.28L37.90 10.28L37.90 10.28Q37.67 11.70 37.22 12.36L37.22 12.36L37.22 12.36Q36.76 13.01 35.85 13.40L35.85 13.40L35.85 13.40Q35.11 13.71 33.85 13.71L33.85 13.71L33.85 13.71Q31.51 13.71 30.53 12.81L30.53 12.81L30.53 12.81Q29.76 12.10 29.58 11.09L29.58 11.09L29.58 11.09Q29.40 10.09 29.40 7.64L29.40 7.64L29.40 7.41L29.40 7.41Q29.40 6.86 29.41 6.20L29.41 6.20L29.41 6.20Q29.43 5.54 29.43 5.39L29.43 5.39L29.43 5.39Q29.43 4.62 29.25 4.33L29.25 4.33L29.25 4.33Q29.06 4.05 28.39 3.95L28.39 3.95L28.39 3.95Q28.08 3.91 28.08 3.68ZM39.62 11.41L39.62 11.41L39.62 11.26L39.62 11.26Q39.62 10.85 39.75 10.74L39.75 10.74L39.75 10.74Q39.89 10.63 40.42 10.47L40.42 10.47L40.42 10.47Q41.16 10.25 41.73 10.04L41.73 10.04L41.73 10.04Q42.31 9.84 42.51 9.76L42.51 9.76L42.51 9.76Q42.71 9.69 42.84 9.69L42.84 9.69L42.84 9.69Q43.15 9.69 43.15 10.16L43.15 10.16L43.15 10.25L43.15 10.25Q43.15 10.37 43.14 10.44L43.14 10.44L43.14 10.44Q43.13 10.51 43.09 10.58L43.09 10.58L43.09 10.58Q43.04 10.65 43.00 10.68L43.00 10.68L43.00 10.68Q42.97 10.71 42.83 10.77L42.83 10.77L42.83 10.77Q42.70 10.82 42.59 10.85L42.59 10.85L42.59 10.85Q42.49 10.88 42.24 10.95L42.24 10.95L42.24 10.95Q42 11.02 41.79 11.09L41.79 11.09L41.79 11.09Q41.40 11.21 41.01 11.35L41.01 11.35L41.01 11.35Q40.63 11.49 40.45 11.56L40.45 11.56L40.45 11.56Q40.28 11.62 40.12 11.66L40.12 11.66L40.12 11.66Q39.97 11.70 39.84 11.70L39.84 11.70L39.84 11.70Q39.62 11.70 39.62 11.41ZM44.04 3.70L44.04 3.70L44.04 3.70Q44.04 3.47 44.45 3.47L44.45 3.47L46.77 3.47L46.77 3.47Q47.10 3.47 47.52 3.45L47.52 3.45L47.52 3.45Q47.94 3.43 48.17 3.43L48.17 3.43L48.17 3.43Q49.43 3.43 50.33 4.07L50.33 4.07L50.33 4.07Q51.23 4.70 51.23 5.78L51.23 5.78L51.23 5.78Q51.23 6.50 50.95 7.03L50.95 7.03L50.95 7.03Q50.68 7.57 50.35 7.81L50.35 7.81L50.35 7.81Q50.02 8.05 49.75 8.22L49.75 8.22L49.75 8.22Q49.48 8.40 49.48 8.46L49.48 8.46L49.48 8.46Q49.48 8.62 50.65 10.27L50.65 10.27L50.65 10.27Q51.83 11.91 52.26 12.38L52.26 12.38L52.26 12.38Q52.79 13.03 53.55 13.03L53.55 13.03L53.55 13.03Q53.75 13.03 53.75 13.20L53.75 13.20L53.75 13.20Q53.75 13.41 53.58 13.48L53.58 13.48L53.58 13.48Q53.41 13.55 52.71 13.55L52.71 13.55L52.71 13.55Q52.05 13.55 51.51 13.23L51.51 13.23L51.51 13.23Q50.81 12.82 49.14 10.09L49.14 10.09L49.14 10.09Q49.04 9.94 49.00 9.87L49.00 9.87L49.00 9.87Q48.33 8.78 47.96 8.78L47.96 8.78L47.67 8.78L46.82 8.78L46.82 8.78Q46.65 8.78 46.61 8.92L46.61 8.92L46.61 8.92Q46.58 9.06 46.58 9.77L46.58 9.77L46.58 9.77Q46.58 10.44 46.58 10.88L46.58 10.88L46.58 10.88Q46.58 11.31 46.58 11.43L46.58 11.43L46.58 11.43Q46.59 11.55 46.59 11.63L46.59 11.63L46.59 11.63Q46.59 11.70 46.59 11.75L46.59 11.75L46.59 11.75Q46.59 12.32 46.86 12.63L46.86 12.63L46.86 12.63Q47.12 12.95 47.45 13.00L47.45 13.00L47.45 13.00Q47.78 13.05 48.05 13.11L48.05 13.11L48.05 13.11Q48.31 13.17 48.31 13.31L48.31 13.31L48.31 13.31Q48.31 13.54 48.06 13.54L48.06 13.54L48.06 13.54Q48.05 13.54 47.10 13.49L47.10 13.49L47.10 13.49Q46.14 13.44 46.06 13.44L46.06 13.44L46.06 13.44Q45.65 13.44 45.09 13.47L45.09 13.47L45.09 13.47Q44.53 13.50 44.52 13.50L44.52 13.50L44.52 13.50Q44.23 13.50 44.23 13.27L44.23 13.27L44.23 13.27Q44.23 13.12 44.41 13.05L44.41 13.05L44.41 13.05Q44.59 12.99 44.81 12.96L44.81 12.96L44.81 12.96Q45.04 12.94 45.22 12.66L45.22 12.66L45.22 12.66Q45.40 12.38 45.40 11.86L45.40 11.86L45.40 11.86Q45.40 11.49 45.41 9.90L45.41 9.90L45.41 9.90Q45.42 8.30 45.42 7.45L45.42 7.45L45.42 7.45Q45.42 6.58 45.41 5.86L45.41 5.86L45.41 5.86Q45.40 5.14 45.40 5.08L45.40 5.08L45.40 5.08Q45.40 4.56 45.19 4.29L45.19 4.29L45.19 4.29Q44.98 4.02 44.72 3.98L44.72 3.98L44.72 3.98Q44.46 3.95 44.25 3.89L44.25 3.89L44.25 3.89Q44.04 3.84 44.04 3.70ZM46.58 5.54L46.58 5.94L46.58 5.94Q46.58 7.38 46.59 7.72L46.59 7.72L46.59 7.72Q46.61 8.06 46.69 8.12L46.69 8.12L46.69 8.12Q46.90 8.25 47.29 8.25L47.29 8.25L47.43 8.25L47.84 8.25L47.84 8.25Q49.03 8.25 49.54 7.70L49.54 7.70L49.54 7.70Q50.05 7.15 50.05 6.30L50.05 6.30L50.05 6.30Q50.05 5.43 49.37 4.72L49.37 4.72L49.37 4.72Q48.69 4.00 47.32 4.00L47.32 4.00L47.32 4.00Q46.80 4.00 46.69 4.28L46.69 4.28L46.69 4.28Q46.58 4.55 46.58 5.54L46.58 5.54ZM54.10 13.33L54.10 13.33L54.10 13.33Q54.10 13.13 54.31 13.06L54.31 13.06L54.31 13.06Q54.75 12.89 55.09 12.31L55.09 12.31L55.09 12.31Q55.43 11.73 56.76 8.83L56.76 8.83L56.76 8.83Q58.13 5.87 59.18 3.63L59.18 3.63L59.18 3.63Q59.28 3.42 59.35 3.36L59.35 3.36L59.35 3.36Q59.43 3.30 59.60 3.30L59.60 3.30L59.60 3.30Q59.72 3.30 59.77 3.36L59.77 3.36L59.77 3.36Q59.81 3.42 59.95 3.82L59.95 3.82L59.95 3.82Q60.03 4.06 60.09 4.23L60.09 4.23L60.09 4.23Q60.16 4.40 60.30 4.77L60.30 4.77L60.30 4.77Q60.44 5.15 60.61 5.56L60.61 5.56L60.61 5.56Q61.05 6.66 62.15 9.22L62.15 9.22L62.15 9.22Q63.25 11.77 63.35 11.98L63.35 11.98L63.35 11.98Q63.59 12.46 63.88 12.71L63.88 12.71L63.88 12.71Q64.18 12.95 64.39 12.97L64.39 12.97L64.39 12.97Q64.61 12.99 64.76 13.04L64.76 13.04L64.76 13.04Q64.90 13.09 64.90 13.26L64.90 13.26L64.90 13.26Q64.90 13.47 64.53 13.47L64.53 13.47L64.53 13.47Q64.37 13.47 63.92 13.43L63.92 13.43L63.92 13.43Q63.48 13.38 63.27 13.38L63.27 13.38L63.27 13.38Q63 13.38 62.58 13.41L62.58 13.41L62.58 13.41Q62.16 13.44 61.96 13.44L61.96 13.44L61.96 13.44Q61.53 13.44 61.41 13.40L61.41 13.40L61.41 13.40Q61.29 13.37 61.29 13.24L61.29 13.24L61.29 13.24Q61.29 13.15 61.40 13.08L61.40 13.08L61.40 13.08Q61.52 13.02 61.64 13.00L61.64 13.00L61.64 13.00Q61.77 12.98 61.88 12.87L61.88 12.87L61.88 12.87Q61.99 12.77 61.99 12.59L61.99 12.59L61.99 12.59Q61.99 12.28 61.64 11.33L61.64 11.33L61.64 11.33Q61.29 10.37 61.05 9.93L61.05 9.93L61.05 9.93Q60.93 9.69 60.48 9.69L60.48 9.69L60.48 9.69Q60.41 9.69 59.86 9.70L59.86 9.70L59.86 9.70Q59.32 9.72 58.79 9.72L58.79 9.72L58.04 9.72L58.04 9.72Q57.41 9.72 57.25 9.79L57.25 9.79L57.25 9.79Q57.09 9.86 56.97 10.12L56.97 10.12L56.97 10.12Q56.88 10.30 56.69 10.70L56.69 10.70L56.69 10.70Q56.49 11.10 56.42 11.26L56.42 11.26L56.42 11.26Q56.35 11.41 56.24 11.65L56.24 11.65L56.24 11.65Q56.14 11.90 56.10 12.05L56.10 12.05L56.10 12.05Q56.07 12.19 56.07 12.31L56.07 12.31L56.07 12.31Q56.07 12.63 56.23 12.80L56.23 12.80L56.23 12.80Q56.39 12.96 56.59 12.98L56.59 12.98L56.59 12.98Q56.78 13.01 56.94 13.06L56.94 13.06L56.94 13.06Q57.11 13.12 57.11 13.26L57.11 13.26L57.11 13.26Q57.11 13.36 57.06 13.40L57.06 13.40L57.06 13.40Q57.02 13.45 56.87 13.45L56.87 13.45L56.87 13.45Q56.78 13.45 56.38 13.45L56.38 13.45L56.38 13.45Q55.99 13.44 55.71 13.44L55.71 13.44L55.71 13.44Q55.40 13.44 55.01 13.47L55.01 13.47L55.01 13.47Q54.63 13.50 54.50 13.50L54.50 13.50L54.50 13.50Q54.10 13.50 54.10 13.33ZM57.61 8.71L57.61 8.71L57.61 8.71Q57.61 8.89 57.74 8.93L57.74 8.93L57.74 8.93Q57.86 8.97 58.32 8.97L58.32 8.97L58.76 8.97L60.09 8.96L60.09 8.96Q60.63 8.96 60.63 8.74L60.63 8.74L60.63 8.74Q60.63 8.55 59.95 7.01L59.95 7.01L59.95 7.01Q59.26 5.46 59.08 5.46L59.08 5.46L59.08 5.46Q58.95 5.46 58.28 7.01L58.28 7.01L58.28 7.01Q57.61 8.55 57.61 8.71Z"></path></g><!----><!----><g data-v-423bf9ae="" id="6ef8467b-0f4f-445b-997f-25e28ba00b7a" fill="#FFFFFF" transform="matrix(5.917159562968884,0,0,5.917159562968884,-4.141981599205224,110.5739650052325)"><path d="M6.93 4.68C6.34 4.17 5.46 3.92 4.30 3.92L1.89 3.92L0.70 3.92L0.70 4.19C0.70 4.34 0.80 4.42 0.98 4.44L1.12 4.44C1.19 4.44 1.29 4.45 1.43 4.45C1.57 4.45 1.72 4.47 1.89 4.47L1.89 13.26C1.72 13.26 1.57 13.27 1.43 13.27C1.29 13.27 1.19 13.29 1.12 13.29L0.98 13.29C0.80 13.30 0.70 13.38 0.70 13.54L0.70 13.82L1.89 13.82L2.60 13.82L3.78 13.82L3.78 13.54C3.78 13.38 3.68 13.30 3.50 13.29L3.37 13.29C3.30 13.29 3.19 13.27 3.05 13.27C2.91 13.27 2.77 13.26 2.60 13.26L2.60 9.83L4.30 9.83C4.84 9.83 5.33 9.74 5.77 9.60C6.20 9.45 6.57 9.25 6.87 8.99C7.18 8.72 7.42 8.41 7.57 8.05C7.74 7.69 7.81 7.29 7.81 6.86C7.81 5.92 7.52 5.18 6.93 4.68ZM6.90 7.81C6.78 8.11 6.59 8.36 6.36 8.57C6.12 8.78 5.82 8.95 5.47 9.07C5.12 9.20 4.73 9.25 4.30 9.25L2.60 9.25L2.60 4.48L4.30 4.48C5.22 4.48 5.92 4.69 6.40 5.10C6.86 5.50 7.10 6.09 7.10 6.85C7.10 7.20 7.03 7.52 6.90 7.81ZM24.32 3.92L23.60 3.92L22.25 3.92L22.25 4.19C22.25 4.34 22.34 4.42 22.53 4.44L22.69 4.44C22.79 4.44 22.93 4.45 23.10 4.45C23.27 4.45 23.44 4.47 23.60 4.47L23.60 10.04C23.60 10.50 23.53 10.92 23.39 11.33C23.25 11.73 23.06 12.08 22.79 12.38C22.53 12.67 22.22 12.89 21.84 13.06C21.46 13.23 21.04 13.31 20.57 13.31C20.09 13.31 19.66 13.23 19.28 13.06C18.90 12.89 18.58 12.66 18.33 12.36C18.06 12.07 17.88 11.72 17.74 11.33C17.60 10.93 17.53 10.50 17.53 10.04L17.53 4.47C17.70 4.47 17.86 4.45 18.03 4.45C18.20 4.45 18.34 4.44 18.44 4.44L18.61 4.44C18.79 4.42 18.89 4.34 18.89 4.19L18.89 3.92L17.53 3.92L16.81 3.92L15.64 3.92L15.64 4.19C15.64 4.34 15.72 4.42 15.90 4.44L16.04 4.44C16.11 4.44 16.21 4.45 16.35 4.45C16.49 4.45 16.65 4.47 16.81 4.47L16.81 10.04C16.81 10.58 16.90 11.09 17.07 11.56C17.23 12.04 17.49 12.46 17.81 12.81C18.13 13.16 18.54 13.44 19.00 13.64C19.46 13.83 19.99 13.93 20.57 13.93C21.14 13.93 21.66 13.83 22.12 13.64C22.58 13.44 22.99 13.16 23.31 12.81C23.63 12.46 23.88 12.04 24.05 11.56C24.22 11.09 24.32 10.58 24.32 10.04L24.32 4.47C24.49 4.47 24.63 4.45 24.77 4.45C24.91 4.45 25.02 4.44 25.09 4.44L25.21 4.44C25.40 4.42 25.49 4.34 25.49 4.19L25.49 3.92ZM41.51 13.29L41.41 13.29L41.23 13.29C41.15 13.29 41.06 13.27 40.98 13.27L38.01 9.53C37.93 9.42 37.81 9.32 37.70 9.25C38.14 9.21 38.53 9.11 38.88 8.96C39.23 8.81 39.51 8.61 39.76 8.37C40.00 8.13 40.19 7.85 40.32 7.55C40.45 7.24 40.52 6.89 40.52 6.51C40.52 5.66 40.24 5.03 39.68 4.58C39.12 4.14 38.26 3.92 37.11 3.92L34.71 3.92L33.53 3.92L33.53 4.19C33.53 4.34 33.61 4.42 33.80 4.44L33.94 4.44C34.01 4.44 34.10 4.45 34.24 4.45C34.38 4.45 34.54 4.47 34.71 4.47L34.71 13.26C34.54 13.26 34.38 13.27 34.24 13.27C34.10 13.27 34.01 13.29 33.94 13.29L33.80 13.29C33.61 13.30 33.52 13.38 33.52 13.54L33.52 13.82L34.71 13.82L35.42 13.82L36.60 13.82L36.60 13.54C36.60 13.38 36.50 13.30 36.32 13.29L36.18 13.29C36.11 13.29 36.01 13.27 35.87 13.27C35.73 13.27 35.59 13.26 35.42 13.26L35.42 9.34L36.60 9.34C36.79 9.34 36.93 9.35 37.02 9.39C37.10 9.44 37.18 9.52 37.27 9.62L40.45 13.64C40.50 13.71 40.54 13.75 40.60 13.78C40.66 13.80 40.73 13.82 40.80 13.82L40.87 13.82L41.41 13.82L41.78 13.82L41.78 13.54C41.78 13.38 41.69 13.30 41.51 13.29ZM37.02 8.81L35.42 8.81L35.42 4.48L37.11 4.48C38.00 4.48 38.67 4.66 39.13 5.00C39.59 5.33 39.82 5.87 39.82 6.57C39.82 6.92 39.76 7.21 39.63 7.49C39.51 7.77 39.31 7.99 39.07 8.19C38.84 8.39 38.54 8.55 38.19 8.65C37.84 8.75 37.45 8.81 37.02 8.81ZM51.17 3.92L49.98 3.92L49.98 4.19C49.98 4.34 50.08 4.42 50.26 4.44L50.40 4.44C50.47 4.44 50.57 4.45 50.71 4.45C50.85 4.45 51.00 4.47 51.17 4.47L51.17 13.26C51.00 13.26 50.85 13.27 50.71 13.27C50.57 13.27 50.47 13.29 50.40 13.29L50.26 13.29C50.08 13.30 49.99 13.38 49.99 13.54L49.99 13.82L51.17 13.82L57.11 13.82L57.11 13.22L57.11 11.76L56.76 11.76C56.56 11.76 56.48 11.89 56.46 12.11C56.46 12.14 56.45 12.19 56.45 12.29C56.45 12.39 56.45 12.53 56.43 12.74C56.42 12.95 56.41 13.09 56.41 13.22L51.88 13.22L51.88 9.09L55.83 9.09L55.83 8.51L51.88 8.51L51.88 4.51L56.41 4.51C56.43 5.12 56.46 5.50 56.46 5.63C56.48 5.85 56.56 5.96 56.76 5.96L57.11 5.96L57.11 4.51L57.11 3.92ZM71.41 9.91C71.27 9.65 71.08 9.39 70.84 9.21C70.60 9.03 70.35 8.88 70.06 8.75C69.76 8.62 69.44 8.51 69.13 8.41C68.82 8.32 68.52 8.20 68.22 8.11C67.93 7.99 67.66 7.87 67.42 7.71C67.19 7.56 67.00 7.38 66.86 7.15C66.72 6.93 66.64 6.65 66.64 6.31C66.64 6.06 66.70 5.82 66.79 5.59C66.89 5.35 67.03 5.15 67.21 4.97C67.40 4.79 67.62 4.65 67.90 4.55C68.18 4.45 68.49 4.40 68.85 4.40C69.52 4.40 70.14 4.51 70.70 4.75C70.74 5.54 70.77 5.99 70.77 6.06C70.78 6.29 70.87 6.41 71.06 6.41L71.40 6.41L71.40 4.38C70.52 4.00 69.68 3.81 68.85 3.81C68.39 3.81 67.98 3.88 67.62 4.02C67.26 4.16 66.96 4.34 66.72 4.58C66.49 4.82 66.29 5.08 66.16 5.39C66.04 5.70 65.98 6.02 65.98 6.36C65.98 6.78 66.05 7.14 66.19 7.42C66.33 7.70 66.53 7.92 66.77 8.12C67.00 8.32 67.26 8.46 67.55 8.58C67.84 8.71 68.17 8.82 68.47 8.92C68.78 9.02 69.08 9.11 69.38 9.21C69.68 9.31 69.94 9.45 70.18 9.60C70.42 9.76 70.60 9.94 70.74 10.16C70.88 10.39 70.95 10.68 70.95 11.03C70.95 11.35 70.90 11.66 70.78 11.94C70.67 12.22 70.52 12.46 70.31 12.67C70.10 12.88 69.83 13.05 69.52 13.16C69.22 13.29 68.87 13.33 68.47 13.33C67.69 13.33 67.03 13.20 66.50 12.95C66.49 12.75 66.49 12.54 66.47 12.32C66.46 12.10 66.46 11.91 66.44 11.76C66.43 11.61 66.43 11.52 66.43 11.51C66.42 11.28 66.32 11.17 66.12 11.17L65.79 11.17L65.79 13.02L65.79 13.20L65.79 13.38C66.64 13.75 67.52 13.93 68.45 13.93C68.95 13.93 69.40 13.85 69.79 13.69C70.18 13.54 70.52 13.31 70.78 13.05C71.05 12.78 71.27 12.46 71.41 12.10C71.55 11.73 71.62 11.34 71.62 10.92C71.62 10.51 71.55 10.18 71.41 9.91ZM87.40 3.92L87.21 3.92L79.91 3.92L79.70 3.92L79.60 3.92L79.60 5.96L79.95 5.96C80.15 5.96 80.23 5.85 80.25 5.63C80.25 5.53 80.28 5.17 80.30 4.52L83.20 4.52L83.20 13.26C83.03 13.26 82.89 13.27 82.75 13.27C82.61 13.27 82.50 13.29 82.43 13.29L82.31 13.29C82.12 13.30 82.03 13.38 82.03 13.54L82.03 13.82L83.20 13.82L83.92 13.82L85.11 13.82L85.11 13.54C85.11 13.38 85.01 13.30 84.83 13.29L84.69 13.29C84.62 13.29 84.52 13.27 84.38 13.27C84.24 13.27 84.08 13.26 83.92 13.26L83.92 4.52L86.80 4.52C86.84 5.24 86.86 5.60 86.86 5.63C86.87 5.85 86.97 5.96 87.16 5.96L87.50 5.96L87.50 3.92ZM113.11 3.92L112.76 3.92L107.17 3.92L105.98 3.92L105.98 4.19C105.98 4.34 106.08 4.42 106.26 4.44L106.40 4.44C106.47 4.44 106.57 4.45 106.71 4.45C106.85 4.45 107.00 4.47 107.17 4.47L107.17 13.26C107.00 13.26 106.85 13.27 106.71 13.27C106.57 13.27 106.47 13.29 106.40 13.29L106.26 13.29C106.08 13.30 105.98 13.38 105.98 13.54L105.98 13.82L107.17 13.82L107.88 13.82L109.06 13.82L109.06 13.54C109.06 13.38 108.98 13.30 108.79 13.29L108.65 13.29C108.58 13.29 108.49 13.27 108.35 13.27C108.21 13.27 108.05 13.26 107.88 13.26L107.88 9.27L111.58 9.27L111.58 8.67L107.88 8.67L107.88 4.51L112.49 4.51C112.52 5.18 112.55 5.56 112.55 5.63C112.56 5.85 112.66 5.96 112.85 5.96L113.19 5.96L113.19 3.92ZM130.58 8.86C130.58 8.11 130.45 7.41 130.23 6.79C130.00 6.17 129.68 5.64 129.26 5.19C128.84 4.75 128.35 4.40 127.78 4.16C127.20 3.92 126.55 3.79 125.85 3.79C125.15 3.79 124.52 3.92 123.94 4.16C123.37 4.40 122.86 4.75 122.44 5.19C122.02 5.64 121.70 6.17 121.48 6.79C121.25 7.41 121.13 8.11 121.13 8.86C121.13 9.63 121.25 10.33 121.48 10.95C121.70 11.56 122.02 12.10 122.44 12.54C122.86 12.99 123.37 13.33 123.94 13.57C124.52 13.80 125.15 13.93 125.85 13.93C126.55 13.93 127.20 13.80 127.78 13.57C128.35 13.33 128.84 12.99 129.26 12.54C129.68 12.10 130.00 11.56 130.23 10.95C130.45 10.33 130.58 9.63 130.58 8.86ZM129.82 8.86C129.82 9.56 129.74 10.18 129.54 10.72C129.35 11.27 129.08 11.75 128.73 12.12C128.38 12.50 127.96 12.81 127.47 13.01C126.98 13.20 126.45 13.30 125.85 13.30C125.26 13.30 124.73 13.20 124.24 13.01C123.75 12.81 123.33 12.50 122.98 12.12C122.63 11.75 122.35 11.27 122.15 10.72C121.95 10.18 121.87 9.56 121.87 8.86C121.87 8.18 121.95 7.55 122.15 7.00C122.35 6.45 122.63 5.98 122.98 5.60C123.33 5.22 123.75 4.91 124.24 4.72C124.73 4.52 125.26 4.41 125.85 4.41C126.45 4.41 126.98 4.52 127.47 4.72C127.96 4.91 128.38 5.22 128.73 5.60C129.08 5.98 129.35 6.45 129.54 7.00C129.74 7.55 129.82 8.18 129.82 8.86ZM146.85 13.29L146.75 13.29L146.57 13.29C146.48 13.29 146.40 13.27 146.31 13.27L143.35 9.53C143.26 9.42 143.15 9.32 143.04 9.25C143.47 9.21 143.86 9.11 144.21 8.96C144.56 8.81 144.84 8.61 145.10 8.37C145.33 8.13 145.53 7.85 145.66 7.55C145.78 7.24 145.85 6.89 145.85 6.51C145.85 5.66 145.57 5.03 145.01 4.58C144.45 4.14 143.60 3.92 142.45 3.92L140.04 3.92L138.87 3.92L138.87 4.19C138.87 4.34 138.95 4.42 139.13 4.44L139.27 4.44C139.34 4.44 139.44 4.45 139.58 4.45C139.72 4.45 139.87 4.47 140.04 4.47L140.04 13.26C139.87 13.26 139.72 13.27 139.58 13.27C139.44 13.27 139.34 13.29 139.27 13.29L139.13 13.29C138.95 13.30 138.85 13.38 138.85 13.54L138.85 13.82L140.04 13.82L140.76 13.82L141.93 13.82L141.93 13.54C141.93 13.38 141.83 13.30 141.65 13.29L141.51 13.29C141.44 13.29 141.34 13.27 141.20 13.27C141.06 13.27 140.92 13.26 140.76 13.26L140.76 9.34L141.93 9.34C142.13 9.34 142.27 9.35 142.35 9.39C142.44 9.44 142.52 9.52 142.60 9.62L145.78 13.64C145.84 13.71 145.88 13.75 145.94 13.78C145.99 13.80 146.06 13.82 146.13 13.82L146.20 13.82L146.75 13.82L147.11 13.82L147.11 13.54C147.11 13.38 147.03 13.30 146.85 13.29ZM142.35 8.81L140.76 8.81L140.76 4.48L142.45 4.48C143.33 4.48 144.00 4.66 144.47 5.00C144.93 5.33 145.15 5.87 145.15 6.57C145.15 6.92 145.10 7.21 144.97 7.49C144.84 7.77 144.65 7.99 144.41 8.19C144.17 8.39 143.88 8.55 143.53 8.65C143.18 8.75 142.79 8.81 142.35 8.81ZM167.19 4.44C167.37 4.42 167.47 4.34 167.47 4.19L167.47 3.92L166.29 3.92L165.79 3.92C165.72 3.92 165.68 3.92 165.63 3.93C165.59 3.95 165.56 3.99 165.52 4.05L161.63 10.92C161.59 10.99 161.56 11.06 161.53 11.13C161.50 11.20 161.48 11.28 161.45 11.35C161.39 11.20 161.34 11.06 161.27 10.93L157.26 4.05C157.22 3.99 157.19 3.95 157.15 3.93C157.11 3.92 157.07 3.92 157.00 3.92L156.51 3.92L155.32 3.92L155.32 4.19C155.32 4.34 155.41 4.42 155.60 4.44L155.74 4.44C155.81 4.44 155.90 4.45 156.04 4.45C156.18 4.45 156.34 4.47 156.51 4.47L156.51 13.26C156.34 13.26 156.18 13.27 156.04 13.27C155.90 13.27 155.81 13.29 155.74 13.29L155.60 13.29C155.41 13.30 155.32 13.38 155.32 13.54L155.32 13.82L156.51 13.82L157.12 13.82L158.34 13.82L158.34 13.54C158.34 13.38 158.24 13.30 158.06 13.29L157.92 13.29C157.85 13.29 157.74 13.27 157.60 13.27C157.46 13.27 157.29 13.26 157.12 13.26L157.12 5.38C157.12 5.25 157.12 5.12 157.11 4.98L161.11 11.91C161.18 12.04 161.28 12.10 161.39 12.10L161.50 12.10C161.63 12.10 161.71 12.04 161.78 11.91L165.68 4.98C165.66 5.12 165.66 5.25 165.66 5.38L165.66 13.26C165.49 13.26 165.33 13.27 165.19 13.27C165.05 13.27 164.93 13.29 164.86 13.29L164.72 13.29C164.54 13.30 164.44 13.38 164.44 13.54L164.44 13.82L165.66 13.82L166.29 13.82L167.47 13.82L167.47 13.54C167.47 13.38 167.37 13.30 167.19 13.29L167.06 13.29C166.99 13.29 166.88 13.27 166.74 13.27C166.60 13.27 166.46 13.26 166.29 13.26L166.29 4.47C166.46 4.47 166.60 4.45 166.74 4.45C166.88 4.45 166.99 4.44 167.06 4.44ZM195.45 8.86C195.45 8.11 195.33 7.41 195.10 6.79C194.88 6.17 194.56 5.64 194.14 5.19C193.72 4.75 193.23 4.40 192.65 4.16C192.08 3.92 191.42 3.79 190.72 3.79C190.02 3.79 189.39 3.92 188.82 4.16C188.24 4.40 187.74 4.75 187.32 5.19C186.90 5.64 186.58 6.17 186.35 6.79C186.13 7.41 186.00 8.11 186.00 8.86C186.00 9.63 186.13 10.33 186.35 10.95C186.58 11.56 186.90 12.10 187.32 12.54C187.74 12.99 188.24 13.33 188.82 13.57C189.39 13.80 190.02 13.93 190.72 13.93C191.42 13.93 192.08 13.80 192.65 13.57C193.23 13.33 193.72 12.99 194.14 12.54C194.56 12.10 194.88 11.56 195.10 10.95C195.33 10.33 195.45 9.63 195.45 8.86ZM194.70 8.86C194.70 9.56 194.61 10.18 194.42 10.72C194.22 11.27 193.96 11.75 193.61 12.12C193.26 12.50 192.84 12.81 192.35 13.01C191.86 13.20 191.32 13.30 190.72 13.30C190.13 13.30 189.60 13.20 189.11 13.01C188.62 12.81 188.20 12.50 187.85 12.12C187.50 11.75 187.22 11.27 187.03 10.72C186.83 10.18 186.75 9.56 186.75 8.86C186.75 8.18 186.83 7.55 187.03 7.00C187.22 6.45 187.50 5.98 187.85 5.60C188.20 5.22 188.62 4.91 189.11 4.72C189.60 4.52 190.13 4.41 190.72 4.41C191.32 4.41 191.86 4.52 192.35 4.72C192.84 4.91 193.26 5.22 193.61 5.60C193.96 5.98 194.22 6.45 194.42 7.00C194.61 7.55 194.70 8.18 194.70 8.86ZM210.85 3.92L210.50 3.92L204.92 3.92L203.73 3.92L203.73 4.19C203.73 4.34 203.83 4.42 204.01 4.44L204.15 4.44C204.22 4.44 204.32 4.45 204.46 4.45C204.60 4.45 204.75 4.47 204.92 4.47L204.92 13.26C204.75 13.26 204.60 13.27 204.46 13.27C204.32 13.27 204.22 13.29 204.15 13.29L204.01 13.29C203.83 13.30 203.73 13.38 203.73 13.54L203.73 13.82L204.92 13.82L205.63 13.82L206.81 13.82L206.81 13.54C206.81 13.38 206.72 13.30 206.54 13.29L206.40 13.29C206.33 13.29 206.23 13.27 206.09 13.27C205.95 13.27 205.80 13.26 205.63 13.26L205.63 9.27L209.33 9.27L209.33 8.67L205.63 8.67L205.63 4.51L210.24 4.51C210.27 5.18 210.29 5.56 210.29 5.63C210.31 5.85 210.41 5.96 210.60 5.96L210.94 5.96L210.94 3.92ZM243.24 3.92L242.69 3.92L242.65 3.92L241.18 3.92L241.18 4.19C241.18 4.34 241.26 4.42 241.44 4.44L241.57 4.44C241.63 4.44 241.72 4.45 241.86 4.45C242.00 4.45 242.14 4.47 242.31 4.47L239.93 12.24C239.90 12.33 239.88 12.43 239.86 12.54C239.85 12.66 239.82 12.75 239.79 12.87C239.76 12.75 239.75 12.63 239.72 12.53L239.64 12.24L236.84 4.10C236.81 4.05 236.78 3.99 236.74 3.96C236.70 3.93 236.64 3.92 236.57 3.92L236.38 3.92C236.31 3.92 236.25 3.93 236.21 3.98C236.17 4.02 236.12 4.05 236.11 4.10L233.31 12.25C233.28 12.35 233.25 12.43 233.23 12.54C233.20 12.64 233.18 12.75 233.16 12.88C233.14 12.78 233.11 12.67 233.09 12.54C233.07 12.43 233.04 12.33 233.02 12.24L230.64 4.47C230.80 4.47 230.94 4.45 231.07 4.45C231.20 4.45 231.28 4.44 231.34 4.44L231.45 4.44C231.63 4.42 231.73 4.34 231.73 4.19L231.73 3.92L230.26 3.92L229.67 3.92L229.07 3.92L229.07 4.19C229.07 4.34 229.17 4.42 229.35 4.44L229.45 4.44C229.49 4.44 229.53 4.45 229.60 4.45C229.67 4.45 229.75 4.47 229.84 4.47L232.79 13.82L233.42 13.82L236.36 5.22C236.40 5.11 236.43 5.00 236.46 4.87C236.49 5.00 236.52 5.11 236.56 5.22L239.48 13.82L240.13 13.82L243.07 4.47C243.15 4.47 243.22 4.45 243.29 4.45C243.36 4.45 243.42 4.44 243.46 4.44L243.56 4.44C243.74 4.42 243.82 4.34 243.82 4.19L243.82 3.92ZM259.63 13.22L259.17 13.17L255.39 3.91L254.67 3.91L250.88 13.17L250.43 13.22C250.25 13.23 250.17 13.33 250.17 13.50L250.17 13.82L250.61 13.82L250.91 13.82L251.16 13.82L251.26 13.82L252.57 13.82L252.57 13.50C252.57 13.31 252.46 13.23 252.25 13.22C252.24 13.22 252.21 13.20 252.17 13.20C252.13 13.20 252.07 13.19 251.97 13.19C251.87 13.19 251.75 13.19 251.61 13.17L252.59 10.75L252.66 10.57L257.39 10.57L257.46 10.75L258.44 13.17C258.30 13.19 258.19 13.19 258.09 13.19C257.99 13.19 257.92 13.20 257.88 13.20C257.84 13.20 257.81 13.22 257.80 13.22C257.59 13.23 257.47 13.31 257.47 13.50L257.47 13.82L258.79 13.82L258.89 13.82L259.15 13.82L259.43 13.82L259.90 13.82L259.90 13.50C259.90 13.33 259.81 13.23 259.63 13.22ZM254.83 5.22C254.86 5.14 254.90 5.04 254.93 4.94C254.95 4.84 255.00 4.75 255.02 4.63C255.05 4.75 255.09 4.84 255.12 4.94C255.15 5.04 255.19 5.12 255.22 5.21L257.18 10.04L252.88 10.04ZM276.12 13.29L276.02 13.29L275.84 13.29C275.76 13.29 275.67 13.27 275.59 13.27L272.62 9.53C272.54 9.42 272.43 9.32 272.31 9.25C272.75 9.21 273.14 9.11 273.49 8.96C273.84 8.81 274.12 8.61 274.37 8.37C274.61 8.13 274.81 7.85 274.93 7.55C275.06 7.24 275.13 6.89 275.13 6.51C275.13 5.66 274.85 5.03 274.29 4.58C273.73 4.14 272.87 3.92 271.73 3.92L269.32 3.92L268.14 3.92L268.14 4.19C268.14 4.34 268.23 4.42 268.41 4.44L268.55 4.44C268.62 4.44 268.72 4.45 268.86 4.45C269.00 4.45 269.15 4.47 269.32 4.47L269.32 13.26C269.15 13.26 269.00 13.27 268.86 13.27C268.72 13.27 268.62 13.29 268.55 13.29L268.41 13.29C268.23 13.30 268.13 13.38 268.13 13.54L268.13 13.82L269.32 13.82L270.03 13.82L271.21 13.82L271.21 13.54C271.21 13.38 271.11 13.30 270.93 13.29L270.79 13.29C270.72 13.29 270.62 13.27 270.48 13.27C270.34 13.27 270.20 13.26 270.03 13.26L270.03 9.34L271.21 9.34C271.40 9.34 271.54 9.35 271.63 9.39C271.71 9.44 271.80 9.52 271.88 9.62L275.06 13.64C275.11 13.71 275.16 13.75 275.21 13.78C275.27 13.80 275.34 13.82 275.41 13.82L275.48 13.82L276.02 13.82L276.39 13.82L276.39 13.54C276.39 13.38 276.30 13.30 276.12 13.29ZM271.63 8.81L270.03 8.81L270.03 4.48L271.73 4.48C272.61 4.48 273.28 4.66 273.74 5.00C274.20 5.33 274.43 5.87 274.43 6.57C274.43 6.92 274.37 7.21 274.25 7.49C274.12 7.77 273.92 7.99 273.69 8.19C273.45 8.39 273.15 8.55 272.80 8.65C272.45 8.75 272.06 8.81 271.63 8.81Z"></path></g></svg>